PathFileType	4	(X/Y/Z)	Patient4_TMGait_0pt3_03_right_19.trc.trc
DataRate	CameraRate	NumFrames	NumMarkers	Units	OrigDataRate	OrigDataStartFrame	OrigNumFrames
56.000000000000	56.000000000000	4	33	mm	56.000000000000	53	       141
Frame#	Time	Sacral			L.Shoulder			Chest			R.Shoulder			Neck			R.ASIS			L.ASIS			R.Thigh.Superior			R.Thigh.Lateral			R.Thigh.Inferior			R.Patella			L.Thigh.Superior			L.Thigh.Lateral			L.Thigh.Inferior			L.Patella			L.Shank.Superior			L.Shank.Lateral			L.Shank.Inferior			R.Shank.Superior			R.Shank.Lateral			R.Shank.Inferior			R.Heel			R.Midfoot.Superior			R.Midfoot.Lateral			R.Toe			L.Heel			L.Midfoot.Lateral			L.Midfoot.Superior			L.Toe			L.Elbow			L.Wrist			R.Elbow			R.Wrist			
		X1	Y1	Z1	X2	Y2	Z2	X3	Y3	Z3	X4	Y4	Z4	X5	Y5	Z5	X6	Y6	Z6	X7	Y7	Z7	X8	Y8	Z8	X9	Y9	Z9	X10	Y10	Z10	X11	Y11	Z11	X12	Y12	Z12	X13	Y13	Z13	X14	Y14	Z14	X15	Y15	Z15	X16	Y16	Z16	X17	Y17	Z17	X18	Y18	Z18	X19	Y19	Z19	X20	Y20	Z20	X21	Y21	Z21	X22	Y22	Z22	X23	Y23	Z23	X24	Y24	Z24	X25	Y25	Z25	X26	Y26	Z26	X27	Y27	Z27	X28	Y28	Z28	X29	Y29	Z29	X30	Y30	Z30	X31	Y31	Z31	X32	Y32	Z32	X33	Y33	Z33	

53	36.648571428571	712.480683666928	985.852044755758	542.307352157575	865.270309892432	1423.108634814013	359.183318253112	977.148215993011	1361.501434882849	516.377422463228	896.862983424524	1427.935748773855	694.629015558433	841.433693497191	1482.796176940842	517.588813110044	949.409331257691	929.500971824417	650.559345607571	923.187954843550	957.162352182321	378.532557206486	999.259613906209	732.088954101422	609.397223552568	927.366950709491	614.391510857860	665.844876096818	1004.467306876734	569.220335427990	581.646265130438	1007.871504665828	473.932011422239	584.783389672840	1011.769960609687	769.350163787243	403.816459161949	968.252351707916	642.473898033217	324.797556603692	1070.248114260859	580.272586485509	389.342709362159	1083.892422487097	492.713766572198	378.285278383632	1022.458855469658	425.736942779217	364.433430432446	886.010791215786	372.048115479098	313.699925480843	890.026078431625	238.416915702153	358.157981861002	962.617290818439	386.351194137729	589.206956827966	876.959093784995	293.217264614276	650.986286611128	897.953470997126	195.975974639734	584.166800730102	738.028999996367	44.105409053044	556.856806851475	910.427876887562	95.761189775469	591.724778891892	821.305345008868	37.485737586618	630.940097887172	1029.685945392101	41.001366112889	620.904864756460	710.551574408236	142.306119124932	393.754711424501	771.580093847028	118.057989860967	307.133743369546	874.594423063490	141.398739600429	328.033887253865	968.780137425707	49.361554240189	283.167413402626	830.423810284793	1066.498690662224	255.251861423848	890.143622164178	812.747136153102	251.113624111985	984.360519334955	1094.000046382308	826.597262575326	1207.581616041983	959.563616173420	832.065214828399	
54	36.666428571429	711.101621593750	986.287924261631	544.072798033173	862.311662566085	1422.818640374655	359.081485399329	976.224900835613	1361.541335248034	514.920040325449	898.306974264207	1428.473305725458	694.069174831532	840.589046103844	1482.802699114987	517.249200845431	948.931248339379	928.858805581672	649.721936057376	920.146601292206	957.544209022334	377.978522280798	997.120379201558	731.129475607749	607.759389776918	925.395309243816	613.787343793820	665.059882904723	1001.131455643529	568.301842295880	579.889801556509	1003.983999771664	473.182719332835	582.882595945505	1009.749089373172	770.991127606004	404.291527840982	967.672389671980	643.904092280155	325.165624807192	1069.291265043577	582.495158909975	390.515315797980	1084.826143223760	496.212072385966	379.474409112246	1026.679389263666	427.925827012041	364.729510149553	894.095377932541	367.142603218579	312.588139197235	905.140015205187	233.713069926490	356.835775868151	958.484839303926	385.636014263817	587.952610630866	872.879001651876	292.791125469424	650.309828891521	893.112305300091	195.491558565599	583.507603992260	732.581602068425	43.924198426534	556.902943101612	904.931602802774	95.653275266408	591.382382965567	815.881266821325	37.441882721588	631.019901374649	1024.251944354472	41.100292088590	620.832897812573	731.314840128202	127.714102065163	390.875478553877	794.203687244960	107.111199729953	304.703092142971	895.464807449730	135.980849507563	326.430968998191	994.786778661289	49.680544165555	282.184002540137	817.876284164911	1066.948436785702	257.106867219920	863.343426336385	810.451474985017	253.282982986676	996.322597222745	1098.457064892644	826.518395522386	1227.947919497713	979.308843350834	826.842121050435	
55	36.684285714286	709.876181750987	987.300453082972	545.644812575497	859.410766351872	1423.087130646639	358.772889619973	975.410758107402	1362.040149706276	513.141789567652	899.955698853705	1429.451175255306	693.189913199358	839.907782514302	1483.249370943985	516.743969905147	948.560923334292	928.658496755279	648.563419244323	917.216725309033	958.308646837001	377.124093437538	994.508989557269	730.354572545330	606.001066158413	922.656022477927	613.613701215808	664.335944935876	996.836027735536	567.583585811419	578.219027767380	998.938199329251	472.785176081408	581.170604562477	1007.245360982383	772.480222068462	404.542376275126	966.128801966208	645.302889885340	325.255681952451	1067.161751928809	584.379655655850	391.359638794670	1084.462493081119	499.622374382559	380.401989783920	1029.857365621107	430.170213303368	364.904991513170	901.892223445921	361.934623289854	311.261061316693	920.338174475958	229.205916741036	355.620594037506	953.432903819303	385.272550404783	586.881430394099	868.101268608623	292.519487699968	649.786670711599	887.880282871850	195.216917663259	582.987518206270	727.099839530716	43.731039098637	556.973257940303	899.403551029444	95.569117026420	591.083899491112	810.438077972853	37.389859347078	631.117017351475	1018.790832141187	41.258348497290	620.740802398335	753.016213884860	113.196944432469	388.054038002830	817.817938022881	96.223929634900	302.557545607680	916.906327803825	130.859183100770	325.190259843892	1021.353313228778	50.639280875450	282.110772704174	805.425476394512	1068.383279865201	258.615735478962	837.920315912426	810.113079233839	255.524633907612	1007.925131415700	1103.667975118235	826.055208381415	1246.897011492165	1000.676354061965	821.027395266952	
56	36.702142857143	708.840422691603	988.854908565985	547.009457947549	856.633589920034	1423.898493846813	358.258692027650	974.731681866422	1362.960598889472	511.063182033227	901.809841082217	1430.832318359035	691.995184992417	839.425393904883	1484.110905687264	516.100315535788	948.298765238564	928.906582518722	647.116682447203	914.425321472768	959.414599160964	375.993474939720	991.466970738897	729.773963873213	604.192433619902	919.160749410153	613.872494003629	663.701270608546	991.631141450601	567.077920186236	576.699453167406	992.790700268262	472.739326636287	579.709616710445	1004.290607013291	773.779848018655	404.492041055396	963.607677927536	646.631781061977	325.001207382902	1063.925753502026	585.899646009392	391.737439731864	1082.841301172312	502.909173998148	380.956150938010	1031.968018792151	432.460221150603	364.923731334307	909.331764594570	356.614111023321	309.777180870730	935.372215298042	225.139953059700	354.613008187987	947.510074710831	385.266466739599	586.032141016038	862.647481209766	292.417553452661	649.429930099819	882.273283676421	195.161123155745	582.622727571386	721.588797359887	43.538902151987	557.066153428371	893.855339163444	95.518024050409	590.851969859051	804.977990352857	37.333017267215	631.226697072617	1013.304889206547	41.469384823931	620.633895970538	775.310300429589	99.278745419551	385.505744771538	842.043513966019	85.840012901913	300.893815409096	938.558517578985	126.332260504212	324.450868912443	1047.975345028744	52.410895545894	283.071662103646	793.199571749671	1070.764789058023	259.814086871596	814.139779115924	811.487086096803	257.803876207762	1019.131651299043	1109.518102489579	825.172078836704	1264.242347261227	1023.421495145534	814.692704876858	
